<svg version="1.1" id="Layer_1" xmlns="http://www.w3.org/2000/svg" xmlns:xlink="http://www.w3.org/1999/xlink" x="0px" y="0px"
	 width="100px" viewBox="0 0 150 150" enable-background="new 0 0 152 154" xml:space="preserve">
<path fill="#193D68" opacity="1.000000" stroke="none" 
	d="
M153.000000,63.000000 
	C153.000000,94.000000 153.000000,124.500000 153.000000,155.000000 
	C102.333336,155.000000 51.666668,155.000000 1.000000,155.000000 
	C1.000000,103.666664 1.000000,52.333332 1.000000,1.000000 
	C51.666668,1.000000 102.333336,1.000000 153.000000,1.000000 
	C153.000000,21.500000 153.000000,42.000000 153.000000,63.000000 
M97.681885,133.467499 
	C98.829353,138.580170 102.263367,141.185410 107.259674,141.366867 
	C114.079689,141.614548 120.928375,141.688858 127.740601,141.350616 
	C133.821930,141.048660 137.118576,137.663254 137.685623,131.552948 
	C138.038391,127.751488 138.003296,123.886604 137.806488,120.067482 
	C137.438812,112.932144 133.458664,109.252594 126.224876,109.158234 
	C120.968872,109.089668 115.711266,109.144836 109.743118,109.144836 
	C124.441360,89.457527 125.336601,69.600716 112.932709,48.854366 
	C118.182602,48.854366 122.837135,48.985432 127.481239,48.821220 
	C133.297989,48.615551 136.879074,45.128586 137.717010,39.197762 
	C139.065094,29.656204 136.561813,22.956614 130.916138,21.148750 
	C129.978668,20.848553 128.950363,20.728285 127.960953,20.712025 
	C123.802765,20.643688 119.622574,20.371981 115.489243,20.685802 
	C108.871025,21.188290 105.755005,24.765301 105.441299,31.379612 
	C105.320633,33.923759 104.961014,36.456573 104.614708,39.961811 
	C86.485474,26.913050 68.313171,25.211849 49.014740,34.982887 
	C49.014740,30.493874 49.114964,26.515741 48.990337,22.544664 
	C48.819923,17.114607 45.615868,13.165944 40.216942,12.855118 
	C32.756016,12.425580 25.235722,12.419097 17.773251,12.825808 
	C12.257770,13.126406 9.145664,16.852362 8.875831,22.385124 
	C8.705549,25.876623 8.782817,29.382505 8.817935,32.881245 
	C8.900233,41.080391 12.567108,44.781387 20.693020,44.850513 
	C25.762905,44.893646 30.833458,44.858532 36.685928,44.858532 
	C22.045811,64.569275 21.159002,84.287971 33.054462,104.387215 
	C32.691746,104.759171 32.590122,104.955879 32.485180,104.957657 
	C28.158205,105.031189 23.829590,105.038445 19.504025,105.157341 
	C13.646809,105.318336 9.757648,108.538437 8.957316,113.777672 
	C7.399173,123.977798 9.489585,130.527527 15.064883,132.641891 
	C16.130743,133.046112 17.334841,133.226974 18.481007,133.252945 
	C22.635054,133.347076 26.815174,133.623962 30.941868,133.291260 
	C37.781837,132.739761 40.829838,129.103836 41.039738,122.137108 
	C41.110733,119.780495 41.448223,117.431915 41.755440,114.081779 
	C59.767590,127.267136 78.010414,128.455597 97.530090,119.254364 
	C97.530090,124.345474 97.530090,128.494705 97.681885,133.467499 
z"/>
<path fill="#F6F7F9" opacity="1.000000" stroke="none" 
	d="
M97.605988,133.055725 
	C97.530090,128.494705 97.530090,124.345474 97.530090,119.254364 
	C78.010414,128.455597 59.767590,127.267136 41.755440,114.081779 
	C41.448223,117.431915 41.110733,119.780495 41.039738,122.137108 
	C40.829838,129.103836 37.781837,132.739761 30.941868,133.291260 
	C26.815174,133.623962 22.635054,133.347076 18.481007,133.252945 
	C17.334841,133.226974 16.130743,133.046112 15.064883,132.641891 
	C9.489585,130.527527 7.399173,123.977798 8.957316,113.777672 
	C9.757648,108.538437 13.646809,105.318336 19.504025,105.157341 
	C23.829590,105.038445 28.158205,105.031189 32.485180,104.957657 
	C32.590122,104.955879 32.691746,104.759171 33.054462,104.387215 
	C21.159002,84.287971 22.045811,64.569275 36.685928,44.858532 
	C30.833458,44.858532 25.762905,44.893646 20.693020,44.850513 
	C12.567108,44.781387 8.900233,41.080391 8.817935,32.881245 
	C8.782817,29.382505 8.705549,25.876623 8.875831,22.385124 
	C9.145664,16.852362 12.257770,13.126406 17.773251,12.825808 
	C25.235722,12.419097 32.756016,12.425580 40.216942,12.855118 
	C45.615868,13.165944 48.819923,17.114607 48.990337,22.544664 
	C49.114964,26.515741 49.014740,30.493874 49.014740,34.982887 
	C68.313171,25.211849 86.485474,26.913050 104.614708,39.961811 
	C104.961014,36.456573 105.320633,33.923759 105.441299,31.379612 
	C105.755005,24.765301 108.871025,21.188290 115.489243,20.685802 
	C119.622574,20.371981 123.802765,20.643688 127.960953,20.712025 
	C128.950363,20.728285 129.978668,20.848553 130.916138,21.148750 
	C136.561813,22.956614 139.065094,29.656204 137.717010,39.197762 
	C136.879074,45.128586 133.297989,48.615551 127.481239,48.821220 
	C122.837135,48.985432 118.182602,48.854366 112.932709,48.854366 
	C125.336601,69.600716 124.441360,89.457527 109.743118,109.144836 
	C115.711266,109.144836 120.968872,109.089668 126.224876,109.158234 
	C133.458664,109.252594 137.438812,112.932144 137.806488,120.067482 
	C138.003296,123.886604 138.038391,127.751488 137.685623,131.552948 
	C137.118576,137.663254 133.821930,141.048660 127.740601,141.350616 
	C120.928375,141.688858 114.079689,141.614548 107.259674,141.366867 
	C102.263367,141.185410 98.829353,138.580170 97.605988,133.055725 
M73.319504,117.177246 
	C70.556358,117.342773 67.377815,116.486328 65.417931,120.463058 
	C76.694855,122.331512 86.696938,120.540558 95.882629,114.790741 
	C96.909973,114.147667 97.286400,111.973320 97.400589,110.466362 
	C97.629631,107.443871 97.468643,104.391830 97.468643,101.351982 
	C97.996132,101.175308 98.523621,100.998627 99.051109,100.821945 
	C101.399635,102.651138 103.748161,104.480324 106.441513,106.578087 
	C108.539482,103.510017 110.425560,100.751823 112.869263,97.178162 
	C108.672043,97.178162 105.714325,97.250641 102.761391,97.162804 
	C96.923584,96.989159 93.327126,93.812050 93.434013,89.036308 
	C93.540695,84.269676 97.281013,81.059921 102.916733,80.998466 
	C107.673439,80.946594 112.431160,80.987785 117.342545,80.987785 
	C117.817482,70.820732 116.160461,61.984650 110.007599,53.038639 
	C109.063385,60.161137 110.789665,68.768707 101.537567,68.737274 
	C91.507202,68.703194 93.796532,59.542419 92.720757,52.971367 
	C86.464569,53.126823 80.213387,52.930283 79.365654,45.132214 
	C79.142113,43.075947 80.734055,40.225849 82.387627,38.729950 
	C84.036995,37.237858 86.809761,36.987579 89.131401,36.178429 
	C77.383232,30.122828 55.436668,32.678432 49.860344,40.825451 
	C51.606121,40.825451 53.272125,40.757530 54.930889,40.838314 
	C59.716175,41.071354 62.961117,44.165260 63.065311,48.518902 
	C63.171749,52.966339 60.250240,56.542202 55.487225,56.727894 
	C51.965878,56.865177 51.011677,58.075279 50.887512,61.458893 
	C50.727013,65.832619 47.063171,68.965340 43.048454,68.969238 
	C38.998775,68.973183 35.610992,65.855278 35.013500,61.549828 
	C34.846531,60.346657 34.739391,59.135174 34.604805,57.927505 
	C28.016474,69.209015 27.496117,80.755745 31.788885,92.585434 
	C38.869576,93.382301 40.539124,91.969383 40.992920,85.022949 
	C41.451378,78.005203 46.548706,72.949173 53.121311,72.992836 
	C59.781620,73.037079 64.706680,77.968231 65.091606,85.126213 
	C65.252327,88.114868 65.165222,91.117050 65.183235,94.113129 
	C65.220703,100.346642 65.782494,100.929306 71.995049,101.150948 
	C77.198631,101.336594 80.503090,103.775475 81.108261,107.877037 
	C81.783318,112.452232 79.517059,115.471100 73.319504,117.177246 
M101.489830,129.053909 
	C101.688507,135.739105 103.230904,137.381561 109.701492,137.498596 
	C114.532181,137.585968 119.365829,137.539459 124.197929,137.512222 
	C132.079636,137.467789 133.784180,135.725327 133.839966,127.739807 
	C133.940155,113.399170 133.704956,113.242516 119.549446,113.120972 
	C113.538284,113.069359 107.075493,114.685371 101.489784,108.108032 
	C101.489784,115.621231 101.489784,121.881111 101.489830,129.053909 
M12.985139,35.808529 
	C14.020858,40.076344 17.200100,40.618679 20.972998,40.893799 
	C28.973913,41.477211 37.601719,38.219566 44.987087,45.349945 
	C44.987087,37.389717 45.007336,30.279556 44.979145,23.169590 
	C44.963379,19.192802 42.881809,16.821491 38.956177,16.699028 
	C32.319271,16.491983 25.669130,16.494720 19.030087,16.648315 
	C14.794774,16.746298 12.807787,19.272644 12.850090,23.469603 
	C12.888598,27.290272 12.885494,31.111362 12.985139,35.808529 
M109.474777,32.000687 
	C108.480034,36.276501 107.485283,40.552311 106.484604,44.853642 
	C112.710533,44.853642 119.513725,44.803883 126.315773,44.870838 
	C130.985779,44.916805 133.448166,42.581455 133.784332,38.065685 
	C133.968262,35.595295 133.963989,33.068729 133.663315,30.614202 
	C133.199692,26.829378 131.135956,24.645292 127.009010,24.792889 
	C123.528107,24.917377 120.034615,24.930929 116.554985,24.789658 
	C112.035683,24.606178 109.706818,26.657305 109.474777,32.000687 
M12.839187,117.698532 
	C12.861619,119.687408 12.780295,121.684135 12.929973,123.663391 
	C13.175379,126.908516 14.946355,128.966400 18.251453,129.090134 
	C22.721441,129.257477 27.291548,129.638412 31.639252,128.888016 
	C33.622448,128.545731 36.088863,126.005814 36.741096,123.955315 
	C38.253223,119.201492 38.794361,114.138809 39.734913,109.170898 
	C34.055107,109.170898 27.426523,109.132675 20.798599,109.182343 
	C14.937920,109.226242 13.341829,110.800064 12.839187,117.698532 
z"/>
<path fill="#1C3F69" opacity="1.000000" stroke="none" 
	d="
M73.738663,117.156464 
	C79.517059,115.471100 81.783318,112.452232 81.108261,107.877037 
	C80.503090,103.775475 77.198631,101.336594 71.995049,101.150948 
	C65.782494,100.929306 65.220703,100.346642 65.183235,94.113129 
	C65.165222,91.117050 65.252327,88.114868 65.091606,85.126213 
	C64.706680,77.968231 59.781620,73.037079 53.121311,72.992836 
	C46.548706,72.949173 41.451378,78.005203 40.992920,85.022949 
	C40.539124,91.969383 38.869576,93.382301 31.788885,92.585434 
	C27.496117,80.755745 28.016474,69.209015 34.604805,57.927505 
	C34.739391,59.135174 34.846531,60.346657 35.013500,61.549828 
	C35.610992,65.855278 38.998775,68.973183 43.048454,68.969238 
	C47.063171,68.965340 50.727013,65.832619 50.887512,61.458893 
	C51.011677,58.075279 51.965878,56.865177 55.487225,56.727894 
	C60.250240,56.542202 63.171749,52.966339 63.065311,48.518902 
	C62.961117,44.165260 59.716175,41.071354 54.930889,40.838314 
	C53.272125,40.757530 51.606121,40.825451 49.860344,40.825451 
	C55.436668,32.678432 77.383232,30.122828 89.131401,36.178429 
	C86.809761,36.987579 84.036995,37.237858 82.387627,38.729950 
	C80.734055,40.225849 79.142113,43.075947 79.365654,45.132214 
	C80.213387,52.930283 86.464569,53.126823 92.720757,52.971367 
	C93.796532,59.542419 91.507202,68.703194 101.537567,68.737274 
	C110.789665,68.768707 109.063385,60.161137 110.007599,53.038639 
	C116.160461,61.984650 117.817482,70.820732 117.342545,80.987785 
	C112.431160,80.987785 107.673439,80.946594 102.916733,80.998466 
	C97.281013,81.059921 93.540695,84.269676 93.434013,89.036308 
	C93.327126,93.812050 96.923584,96.989159 102.761391,97.162804 
	C105.714325,97.250641 108.672043,97.178162 112.869263,97.178162 
	C110.425560,100.751823 108.539482,103.510017 106.441513,106.578087 
	C103.748161,104.480324 101.399635,102.651138 99.051109,100.821945 
	C98.523621,100.998627 97.996132,101.175308 97.468643,101.351982 
	C97.468643,104.391830 97.629631,107.443871 97.400589,110.466362 
	C97.286400,111.973320 96.909973,114.147667 95.882629,114.790741 
	C86.696938,120.540558 76.694855,122.331512 65.417931,120.463058 
	C67.377815,116.486328 70.556358,117.342773 73.738663,117.156464 
M84.775894,69.119385 
	C81.635178,69.080391 78.493523,68.975273 75.353973,69.019478 
	C71.595993,69.072388 69.344177,71.197540 69.272362,74.805115 
	C69.195206,78.680824 71.525719,80.862312 75.495804,80.985985 
	C77.643967,81.052895 79.799416,80.921989 81.945244,81.019531 
	C85.247536,81.169647 87.963173,80.222954 88.918190,76.810425 
	C89.822609,73.578659 88.753700,70.945091 84.775894,69.119385 
z"/>
<path fill="#24466F" opacity="1.000000" stroke="none" 
	d="
M101.489807,128.597443 
	C101.489784,121.881111 101.489784,115.621231 101.489784,108.108032 
	C107.075493,114.685371 113.538284,113.069359 119.549446,113.120972 
	C133.704956,113.242516 133.940155,113.399170 133.839966,127.739807 
	C133.784180,135.725327 132.079636,137.467789 124.197929,137.512222 
	C119.365829,137.539459 114.532181,137.585968 109.701492,137.498596 
	C103.230904,137.381561 101.688507,135.739105 101.489807,128.597443 
z"/>
<path fill="#1C406A" opacity="1.000000" stroke="none" 
	d="
M12.942936,35.370399 
	C12.885494,31.111362 12.888598,27.290272 12.850090,23.469603 
	C12.807787,19.272644 14.794774,16.746298 19.030087,16.648315 
	C25.669130,16.494720 32.319271,16.491983 38.956177,16.699028 
	C42.881809,16.821491 44.963379,19.192802 44.979145,23.169590 
	C45.007336,30.279556 44.987087,37.389717 44.987087,45.349945 
	C37.601719,38.219566 28.973913,41.477211 20.972998,40.893799 
	C17.200100,40.618679 14.020858,40.076344 12.942936,35.370399 
z"/>
<path fill="#284971" opacity="1.000000" stroke="none" 
	d="
M109.479103,31.575424 
	C109.706818,26.657305 112.035683,24.606178 116.554985,24.789658 
	C120.034615,24.930929 123.528107,24.917377 127.009010,24.792889 
	C131.135956,24.645292 133.199692,26.829378 133.663315,30.614202 
	C133.963989,33.068729 133.968262,35.595295 133.784332,38.065685 
	C133.448166,42.581455 130.985779,44.916805 126.315773,44.870838 
	C119.513725,44.803883 112.710533,44.853642 106.484604,44.853642 
	C107.485283,40.552311 108.480034,36.276501 109.479103,31.575424 
z"/>
<path fill="#20436C" opacity="1.000000" stroke="none" 
	d="
M12.839676,117.249817 
	C13.341829,110.800064 14.937920,109.226242 20.798599,109.182343 
	C27.426523,109.132675 34.055107,109.170898 39.734913,109.170898 
	C38.794361,114.138809 38.253223,119.201492 36.741096,123.955315 
	C36.088863,126.005814 33.622448,128.545731 31.639252,128.888016 
	C27.291548,129.638412 22.721441,129.257477 18.251453,129.090134 
	C14.946355,128.966400 13.175379,126.908516 12.929973,123.663391 
	C12.780295,121.684135 12.861619,119.687408 12.839676,117.249817 
z"/>
<path fill="#FBFBFC" opacity="1.000000" stroke="none" 
	d="
M85.178925,69.261627 
	C88.753700,70.945091 89.822609,73.578659 88.918190,76.810425 
	C87.963173,80.222954 85.247536,81.169647 81.945244,81.019531 
	C79.799416,80.921989 77.643967,81.052895 75.495804,80.985985 
	C71.525719,80.862312 69.195206,78.680824 69.272362,74.805115 
	C69.344177,71.197540 71.595993,69.072388 75.353973,69.019478 
	C78.493523,68.975273 81.635178,69.080391 85.178925,69.261627 
z"/>
</svg>